<svg width="36" height="36" viewBox="0 0 36 36" fill="none" xmlns="http://www.w3.org/2000/svg">
<path d="M33.3942 27.3444C33.411 27.2924 33.4225 27.2375 33.4225 27.1797V8.12109C33.4225 8.06298 33.411 8.00773 33.3938 7.95535C33.3913 7.94818 33.3899 7.941 33.387 7.93383C33.364 7.87249 33.3303 7.81724 33.288 7.76881C33.2851 7.76558 33.2847 7.76164 33.2819 7.75841C33.2801 7.75661 33.2779 7.7559 33.2761 7.7541C33.2309 7.70603 33.1775 7.66729 33.1176 7.63823C33.1129 7.63608 33.1093 7.63321 33.1047 7.63106C33.048 7.60559 32.9863 7.59124 32.9214 7.58693C32.9149 7.58657 32.9088 7.58514 32.9023 7.58514C32.8962 7.58478 32.8909 7.58334 32.8848 7.58334H3.03662C3.03052 7.58334 3.02478 7.58478 3.01869 7.58514C3.01295 7.5855 3.00721 7.58657 3.00147 7.58693C2.93582 7.59124 2.87304 7.60594 2.81565 7.63177C2.81206 7.63321 2.80919 7.63572 2.8056 7.63715C2.74462 7.66621 2.69045 7.70567 2.64489 7.75446C2.6431 7.75625 2.64094 7.75661 2.63915 7.75841C2.63628 7.76128 2.63592 7.76522 2.63305 7.76845C2.59072 7.81688 2.55664 7.87249 2.53368 7.93383C2.53081 7.941 2.52938 7.94818 2.52687 7.95571C2.50965 8.00809 2.49817 8.06333 2.49817 8.12145V27.1804C2.49817 27.2393 2.51001 27.2952 2.52758 27.3483C2.5301 27.3555 2.53153 27.3623 2.53404 27.3695C2.55736 27.4312 2.5918 27.4868 2.63449 27.5352C2.637 27.5381 2.63771 27.5417 2.64023 27.5446C2.64238 27.5471 2.64525 27.5485 2.64776 27.551C2.66534 27.5693 2.68471 27.5855 2.7048 27.6012C2.71377 27.6081 2.72166 27.6163 2.73098 27.6228C2.75466 27.6393 2.78013 27.6525 2.80632 27.6647C2.81278 27.6676 2.81851 27.6723 2.82497 27.6748C2.8899 27.7024 2.96129 27.7182 3.03626 27.7182H32.884C32.959 27.7182 33.0304 27.7028 33.0953 27.6748C33.1054 27.6705 33.1147 27.664 33.1244 27.659C33.1466 27.6479 33.1689 27.6364 33.1893 27.6224C33.2001 27.6149 33.2098 27.6052 33.2202 27.5969C33.2385 27.5822 33.2564 27.5675 33.2722 27.5507C33.2751 27.5478 33.2783 27.5456 33.2812 27.5428C33.284 27.5395 33.2847 27.5352 33.2876 27.532C33.3296 27.4839 33.3633 27.4287 33.3863 27.3677C33.3899 27.3598 33.3916 27.3523 33.3942 27.3444ZM3.57472 9.34152L12.6316 17.6144L3.57472 25.9532V9.34152ZM22.1376 17.209C22.1003 17.2334 22.0608 17.2538 22.0296 17.2883C22.0178 17.3012 22.0138 17.318 22.0034 17.3317L17.9605 21.0245L4.42347 8.6592H31.4976L22.1376 17.209ZM13.4294 18.3429L17.5975 22.1502C17.7004 22.2442 17.8303 22.2912 17.9605 22.2912C18.0907 22.2912 18.2206 22.2442 18.3232 22.1502L22.4396 18.3903L31.495 26.642H4.41558L13.4294 18.3429ZM23.2378 17.6613L32.3463 9.34152V25.9618L23.2378 17.6613Z" fill="white"/>
</svg>
