<svg width="36" height="36" viewBox="0 0 36 36" fill="none" xmlns="http://www.w3.org/2000/svg">
<path d="M18 24C18.8284 24 19.5 23.3284 19.5 22.5C19.5 21.6716 18.8284 21 18 21C17.1716 21 16.5 21.6716 16.5 22.5C16.5 23.3284 17.1716 24 18 24Z" fill="white"/>
<path d="M18 28.5C17.5852 28.5 17.25 28.1647 17.25 27.75V23.25C17.25 22.8352 17.5852 22.5 18 22.5C18.4147 22.5 18.75 22.8352 18.75 23.25V27.75C18.75 28.1647 18.4147 28.5 18 28.5Z" fill="white"/>
<path d="M31.5 36H4.5V13.5H31.5V36ZM6 34.5H30V15H6V34.5Z" fill="white"/>
<path d="M27 14.25H25.5V9C25.5 4.8645 22.1355 1.5 18 1.5C13.8645 1.5 10.5 4.8645 10.5 9V14.25H9V9C9 4.03725 13.0373 0 18 0C22.9628 0 27 4.03725 27 9V14.25Z" fill="white"/>
</svg>
