<svg width="48" height="48" viewBox="0 0 48 48" fill="none" xmlns="http://www.w3.org/2000/svg">
<g opacity="0.8">
<path d="M44.565 42.435L34.815 32.685H34.71C37.7152 29.1416 39.2339 24.5734 38.9483 19.9361C38.6628 15.2987 36.5951 10.9513 33.1779 7.80342C29.7607 4.6555 25.2586 2.95088 20.6134 3.04611C15.9682 3.14135 11.5398 5.02908 8.25444 8.31441C4.96911 11.5997 3.08138 16.0282 2.98615 20.6734C2.89091 25.3186 4.59554 29.8206 7.74345 33.2379C10.8914 36.6551 15.2387 38.7227 19.8761 39.0083C24.5135 39.2939 29.0816 37.7752 32.625 34.77C32.625 34.77 32.625 34.845 32.625 34.875L42.375 44.625C42.5145 44.7656 42.6804 44.8772 42.8632 44.9533C43.0459 45.0295 43.242 45.0687 43.44 45.0687C43.638 45.0687 43.8341 45.0295 44.0169 44.9533C44.1997 44.8772 44.3656 44.7656 44.505 44.625C44.6588 44.4888 44.783 44.3225 44.8699 44.1364C44.9568 43.9503 45.0045 43.7483 45.0101 43.543C45.0157 43.3377 44.9791 43.1334 44.9026 42.9428C44.826 42.7522 44.7111 42.5794 44.565 42.435ZM21 36C18.0333 36 15.1332 35.1203 12.6665 33.472C10.1997 31.8238 8.27714 29.4811 7.14183 26.7402C6.00651 23.9993 5.70946 20.9833 6.28824 18.0736C6.86702 15.1639 8.29563 12.4912 10.3934 10.3934C12.4912 8.2956 15.164 6.86699 18.0737 6.28821C20.9834 5.70943 23.9994 6.00648 26.7403 7.1418C29.4812 8.27711 31.8238 10.1997 33.4721 12.6664C35.1203 15.1332 36 18.0333 36 21C36 22.9698 35.612 24.9204 34.8582 26.7402C34.1044 28.5601 32.9995 30.2137 31.6066 31.6066C30.2137 32.9995 28.5602 34.1044 26.7403 34.8582C24.9204 35.612 22.9699 36 21 36Z" fill="white"/>
</g>
</svg>
