<svg width="379" height="379" viewBox="0 0 379 379" fill="none" xmlns="http://www.w3.org/2000/svg">
<g filter="url(#filter0_i_0_55)">
<path d="M321.696 123.429C322.034 121.394 322.211 119.301 322.211 117.164C322.211 97.1738 306.764 80.9688 287.708 80.9688C273.543 80.9688 261.371 89.9247 256.057 102.734C251.752 98.8349 246.167 96.4809 240.062 96.4809C226.452 96.4809 215.418 108.184 215.418 122.622C215.418 123.426 215.452 124.221 215.519 125.006C208.973 128.37 204.465 135.429 204.465 143.592C204.465 155.015 213.292 164.275 224.18 164.275H317.282C328.17 164.275 336.997 155.015 336.997 143.592C336.997 133.761 330.459 125.532 321.696 123.429Z" fill="url(#paint0_linear_0_55)"/>
</g>
<g filter="url(#filter1_f_0_55)">
<rect x="77.5326" y="77" width="223.999" height="224.132" rx="94" fill="#FFEF9A"/>
</g>
<g filter="url(#filter2_i_0_55)">
<path d="M310.859 199.978C310.859 264.609 261.551 317.003 200.726 317.003C139.902 317.003 90.5938 264.609 90.5938 199.978C90.5938 135.347 139.902 82.9531 200.726 82.9531C261.551 82.9531 310.859 135.347 310.859 199.978Z" fill="url(#paint1_linear_0_55)"/>
</g>
<g filter="url(#filter3_i_0_55)">
<path d="M174.231 270.203C174.569 268.168 174.746 266.074 174.746 263.937C174.746 243.947 159.299 227.742 140.244 227.742C126.078 227.742 113.906 236.698 108.592 249.507C104.288 245.608 98.7018 243.254 92.5976 243.254C78.9868 243.254 67.9531 254.958 67.9531 269.395C67.9531 270.199 67.9873 270.994 68.0543 271.78C61.5078 275.144 57 282.202 57 290.365C57 301.788 65.827 311.048 76.7156 311.048H169.817C180.706 311.048 189.533 301.788 189.533 290.365C189.533 280.534 182.994 272.305 174.231 270.203Z" fill="url(#paint2_linear_0_55)"/>
</g>
<defs>
<filter id="filter0_i_0_55" x="204.465" y="80.9688" width="132.533" height="93.3058" filterUnits="userSpaceOnUse" color-interpolation-filters="sRGB">
<feFlood flood-opacity="0" result="BackgroundImageFix"/>
<feBlend mode="normal" in="SourceGraphic" in2="BackgroundImageFix" result="shape"/>
<feColorMatrix in="SourceAlpha" type="matrix" values="0 0 0 0 0 0 0 0 0 0 0 0 0 0 0 0 0 0 127 0" result="hardAlpha"/>
<feOffset dy="11"/>
<feGaussianBlur stdDeviation="5"/>
<feComposite in2="hardAlpha" operator="arithmetic" k2="-1" k3="1"/>
<feColorMatrix type="matrix" values="0 0 0 0 1 0 0 0 0 1 0 0 0 0 1 0 0 0 1 0"/>
<feBlend mode="normal" in2="shape" result="effect1_innerShadow_0_55"/>
</filter>
<filter id="filter1_f_0_55" x="0.532593" y="0" width="377.999" height="378.132" filterUnits="userSpaceOnUse" color-interpolation-filters="sRGB">
<feFlood flood-opacity="0" result="BackgroundImageFix"/>
<feBlend mode="normal" in="SourceGraphic" in2="BackgroundImageFix" result="shape"/>
<feGaussianBlur stdDeviation="38.5" result="effect1_foregroundBlur_0_55"/>
</filter>
<filter id="filter2_i_0_55" x="90.5938" y="82.9531" width="220.265" height="239.05" filterUnits="userSpaceOnUse" color-interpolation-filters="sRGB">
<feFlood flood-opacity="0" result="BackgroundImageFix"/>
<feBlend mode="normal" in="SourceGraphic" in2="BackgroundImageFix" result="shape"/>
<feColorMatrix in="SourceAlpha" type="matrix" values="0 0 0 0 0 0 0 0 0 0 0 0 0 0 0 0 0 0 127 0" result="hardAlpha"/>
<feOffset dy="5"/>
<feGaussianBlur stdDeviation="9"/>
<feComposite in2="hardAlpha" operator="arithmetic" k2="-1" k3="1"/>
<feColorMatrix type="matrix" values="0 0 0 0 1 0 0 0 0 1 0 0 0 0 1 0 0 0 0.81 0"/>
<feBlend mode="normal" in2="shape" result="effect1_innerShadow_0_55"/>
</filter>
<filter id="filter3_i_0_55" x="57" y="227.742" width="132.533" height="93.3058" filterUnits="userSpaceOnUse" color-interpolation-filters="sRGB">
<feFlood flood-opacity="0" result="BackgroundImageFix"/>
<feBlend mode="normal" in="SourceGraphic" in2="BackgroundImageFix" result="shape"/>
<feColorMatrix in="SourceAlpha" type="matrix" values="0 0 0 0 0 0 0 0 0 0 0 0 0 0 0 0 0 0 127 0" result="hardAlpha"/>
<feOffset dy="11"/>
<feGaussianBlur stdDeviation="5"/>
<feComposite in2="hardAlpha" operator="arithmetic" k2="-1" k3="1"/>
<feColorMatrix type="matrix" values="0 0 0 0 1 0 0 0 0 1 0 0 0 0 1 0 0 0 1 0"/>
<feBlend mode="normal" in2="shape" result="effect1_innerShadow_0_55"/>
</filter>
<linearGradient id="paint0_linear_0_55" x1="212.894" y1="156.837" x2="351.988" y2="58.6009" gradientUnits="userSpaceOnUse">
<stop stop-color="white"/>
<stop offset="1" stop-color="white" stop-opacity="0.58"/>
</linearGradient>
<linearGradient id="paint1_linear_0_55" x1="183.997" y1="263.675" x2="283.169" y2="99.9874" gradientUnits="userSpaceOnUse">
<stop stop-color="#FF9900"/>
<stop offset="1" stop-color="#FFEE94"/>
</linearGradient>
<linearGradient id="paint2_linear_0_55" x1="65.4297" y1="303.61" x2="204.523" y2="205.374" gradientUnits="userSpaceOnUse">
<stop stop-color="white"/>
<stop offset="1" stop-color="white" stop-opacity="0.58"/>
</linearGradient>
</defs>
</svg>
